<svg width="68" height="56" viewBox="0 0 68 56" fill="none" xmlns="http://www.w3.org/2000/svg">
<rect width="68" height="56" rx="5" fill="url(#paint0_linear)"/>
<path d="M45.9142 40.4571L38.7244 22.9324C38.3257 21.9601 38.1234 20.9345 38.1234 19.8837V15.2513C38.1234 14.7525 38.3177 14.2835 38.6705 13.9307C39.1006 13.5006 39.3377 12.9286 39.3377 12.3203V11.6641C39.3377 11.2973 39.0401 11 38.6736 11H29.4019C29.0351 11 28.7378 11.2973 28.7378 11.6641V12.3203C28.7378 12.9286 28.9747 13.5006 29.4047 13.9307C29.7575 14.2835 29.9518 14.7525 29.9518 15.2516V19.8837C29.9518 20.9345 29.7497 21.9601 29.3508 22.9324L27.3752 27.7479C27.3744 27.7497 27.3736 27.7515 27.3729 27.7533L22.161 40.4571C21.7436 41.4748 21.8601 42.6278 22.4728 43.5411C23.0855 44.4547 24.1078 45 25.2077 45H42.8676C43.9674 45 44.99 44.4547 45.6027 43.5411C46.2151 42.6275 46.3316 41.4748 45.9142 40.4571V40.4571ZM30.5796 23.4364C31.0444 22.3036 31.2799 21.1083 31.2799 19.8837V15.2513C31.2799 14.3979 30.9476 13.5953 30.344 12.9917C30.1666 12.8142 30.068 12.5787 30.0659 12.3281H38.0095C38.0075 12.5787 37.9089 12.814 37.7312 12.9917C37.1278 13.5953 36.7953 14.3976 36.7953 15.2513V19.8834C36.7953 21.108 37.0311 22.3033 37.4957 23.4361L39.099 27.3442H28.9762L30.5796 23.4364ZM44.4995 42.8013C44.1285 43.3546 43.5337 43.6719 42.8676 43.6719H25.2077C24.5418 43.6719 23.947 43.3546 23.5758 42.8013C23.2959 42.384 23.189 41.8999 23.2616 41.4226H24.3558C24.7223 41.4226 25.0199 41.1251 25.0199 40.7586C25.0199 40.3918 24.7223 40.0945 24.3558 40.0945H23.7457L24.5083 38.2351H25.6284C25.9952 38.2351 26.2925 37.9376 26.2925 37.5711C26.2925 37.2043 25.9952 36.907 25.6284 36.907H25.0533L25.8159 35.0476H26.9677C27.3345 35.0476 27.6317 34.7501 27.6317 34.3836C27.6317 34.0168 27.3345 33.7195 26.9677 33.7195H26.3609L27.1238 31.8601H28.3067C28.6735 31.8601 28.9708 31.5626 28.9708 31.1961C28.9708 30.8293 28.6735 30.532 28.3067 30.532H27.6686L28.4315 28.6726H39.6438L44.6854 40.9614C44.9381 41.5775 44.8704 42.2483 44.4995 42.8013V42.8013Z" fill="white"/>
<path d="M42.6349 40.4986C42.4958 40.1591 42.1083 39.9967 41.7687 40.1355C41.4295 40.2745 41.2668 40.6621 41.4056 41.0016L41.4092 41.0099C41.5145 41.267 41.7623 41.4226 42.024 41.4226C42.1078 41.4226 42.1929 41.4068 42.2754 41.3731C42.6147 41.234 42.7773 40.8462 42.6383 40.5069L42.6349 40.4986Z" fill="white"/>
<path d="M41.6964 38.2107L39.3182 32.4142C39.1792 32.0749 38.7914 31.9125 38.4518 32.0518C38.1125 32.1909 37.9504 32.5789 38.0894 32.9182L40.4676 38.7148C40.5729 38.9718 40.8206 39.1269 41.0824 39.1269C41.1662 39.1269 41.2515 39.1111 41.334 39.0771C41.6733 38.9381 41.8357 38.55 41.6964 38.2107V38.2107Z" fill="white"/>
<defs>
<linearGradient id="paint0_linear" x1="34" y1="0" x2="34" y2="56" gradientUnits="userSpaceOnUse">
<stop stop-color="#3669FF"/>
<stop offset="1" stop-color="#588AFF"/>
</linearGradient>
</defs>
</svg>
